# xmcd
#
# Track frame offsets:
#	150
#	15140
#	32724
#	46820
#	63436
#	79758
#	100065
#	128613
#	146001
#	167256
#	187513
#	202417
#
# Disc length: 2972 seconds
#
# Revision: 1
# Processed by: cddbd v1.5.2PL0 Copyright (c) Steve Scherf et al.
# Submitted via: dBpowerAMP V4.0
#
DISCID=8c0b9a0c
DTITLE=Sparta - Threes
DYEAR=1900
DGENRE=Punk
TTITLE0=Untreatable Disease
TTITLE1=Crawl
TTITLE2=Unstitch Your Mouth
TTITLE3=Taking Back Control
TTITLE4=Erase It Again
TTITLE5=Atlas
TTITLE6=The Most Vicious Crime
TTITLE7=False Start
TTITLE8=Weather The Storm
TTITLE9=Red.Right.Return (Straight In Our Hands)
TTITLE10=Without A Sound
TTITLE11=Translations
EXTD=
EXTT0=
EXTT1=
EXTT2=
EXTT3=
EXTT4=
EXTT5=
EXTT6=
EXTT7=
EXTT8=
EXTT9=
EXTT10=
EXTT11=
PLAYORDER=
